<svg xmlns="http://www.w3.org/2000/svg" xmlns:xlink="http://www.w3.org/1999/xlink" viewBox="0 0 193.99 134.41"><defs><style>.cls-1{fill:#00155c;}.cls-2{isolation:isolate;}.cls-3{fill:url(#linear-gradient);}.cls-4{fill:url(#linear-gradient-2);}.cls-5{fill:url(#linear-gradient-3);}.cls-6{fill:#00142e;}.cls-7{fill:url(#linear-gradient-4);}.cls-8{fill:url(#linear-gradient-5);}.cls-9{fill:url(#linear-gradient-6);}.cls-10{fill:url(#linear-gradient-7);}.cls-11{fill:url(#linear-gradient-8);}.cls-12{fill:url(#linear-gradient-9);}.cls-13{fill:url(#linear-gradient-10);}.cls-14{fill:url(#linear-gradient-11);}.cls-15{fill:url(#linear-gradient-12);}.cls-16{fill:url(#linear-gradient-13);}.cls-17{opacity:0.45;}</style><linearGradient id="linear-gradient" x1="150.06" y1="18.59" x2="150.06" y2="126" gradientUnits="userSpaceOnUse"><stop offset="0" stop-color="#38800b"/><stop offset="1" stop-color="#7f3002"/></linearGradient><linearGradient id="linear-gradient-2" x1="125.56" y1="18.59" x2="125.56" y2="126" xlink:href="#linear-gradient"/><linearGradient id="linear-gradient-3" x1="133.5" y1="18.59" x2="133.5" y2="126" xlink:href="#linear-gradient"/><linearGradient id="linear-gradient-4" x1="103.55" y1="18.59" x2="103.55" y2="126" xlink:href="#linear-gradient"/><linearGradient id="linear-gradient-5" x1="107.82" y1="18.59" x2="107.82" y2="126" xlink:href="#linear-gradient"/><linearGradient id="linear-gradient-6" x1="103.37" y1="18.59" x2="103.37" y2="126" xlink:href="#linear-gradient"/><linearGradient id="linear-gradient-7" x1="100.31" y1="20.18" x2="100.31" y2="116.25" xlink:href="#linear-gradient"/><linearGradient id="linear-gradient-8" x1="78.07" y1="20.18" x2="78.07" y2="116.25" xlink:href="#linear-gradient"/><linearGradient id="linear-gradient-9" x1="71.86" y1="20.18" x2="71.86" y2="116.25" xlink:href="#linear-gradient"/><linearGradient id="linear-gradient-10" x1="32.93" y1="20.18" x2="32.93" y2="116.25" xlink:href="#linear-gradient"/><linearGradient id="linear-gradient-11" x1="33.42" y1="20.18" x2="33.42" y2="116.25" xlink:href="#linear-gradient"/><linearGradient id="linear-gradient-12" x1="139.53" y1="21.13" x2="139.53" y2="126.38" gradientUnits="userSpaceOnUse"><stop offset="0" stop-color="#6eff18"/><stop offset="0.58" stop-color="#fcfc07"/><stop offset="1" stop-color="#f94904"/></linearGradient><linearGradient id="linear-gradient-13" x1="75.98" y1="7.47" x2="75.98" y2="114.32" xlink:href="#linear-gradient-12"/></defs><title>vs-logo</title><g id="Layer_2" data-name="Layer 2"><g id="Layer_1-2" data-name="Layer 1"><polygon class="cls-1" points="36.23 119.64 0 13.82 44.8 10.96 63.39 14.3 67.21 28.6 70.07 9.53 110.1 0 135.84 3.81 133.94 13.35 144.42 12.39 158.72 14.3 193.99 43.85 179.69 73.4 173.02 73.4 191.13 82.94 176.83 126.79 126.31 134.41 108.2 132.51 91.99 121.07 54.81 123.93 36.23 119.64"/><g class="cls-2"><polygon class="cls-3" points="168.72 66.86 152.06 65.01 131.41 54.57 148.07 56.43 168.72 66.86"/><polygon class="cls-4" points="132.38 94.51 115.72 92.66 118.73 86.05 135.39 87.9 132.38 94.51"/><polygon class="cls-5" points="126.51 24.81 109.85 22.96 140.5 18.65 157.16 20.51 126.51 24.81"/><polygon class="cls-6" points="96.31 107 79.64 105.15 89.55 81.35 106.21 83.2 96.31 107"/><polygon class="cls-7" points="127.45 127.1 110.79 125.25 79.64 105.15 96.31 107 127.45 127.1"/><polygon class="cls-8" points="135.39 87.9 118.73 86.05 80.24 68.36 96.9 70.21 135.39 87.9"/><polygon class="cls-9" points="96.9 70.21 80.24 68.36 109.85 22.96 126.51 24.81 96.9 70.21"/></g><g class="cls-2"><polygon class="cls-10" points="90.49 15.22 73.83 13.36 110.13 6.34 126.79 8.19 90.49 15.22"/><polygon class="cls-11" points="82.3 70.94 65.64 69.09 73.83 13.36 90.49 15.22 82.3 70.94"/><polygon class="cls-12" points="78.09 78.41 61.43 76.56 65.64 69.09 82.3 70.94 78.09 78.41"/><polygon class="cls-13" points="57.35 116.39 40.69 114.53 8.52 20.62 25.18 22.47 57.35 116.39"/><polygon class="cls-14" points="25.18 22.47 8.52 20.62 41.66 17.89 58.32 19.74 25.18 22.47"/></g><polygon class="cls-15" points="157.16 20.51 182.75 43.03 168.72 66.86 148.07 56.43 143.95 63.6 181.24 85.58 168.27 121.37 127.45 127.1 96.31 107 106.21 83.2 132.38 94.51 135.39 87.9 96.9 70.21 126.51 24.81 157.16 20.51"/><polygon class="cls-16" points="90.49 15.22 126.79 8.19 101.99 113.69 57.35 116.39 25.18 22.47 58.32 19.74 78.09 78.41 82.3 70.94 90.49 15.22"/><path class="cls-17" d="M108.93,84.36l2.83,1.23c-3.32,15.77-7.19,29.63-7.19,29.84s-8.39.39-8.39.39l-2.53-1.63,8.34-.5Z"/><path class="cls-17" d="M126.51,24.81s-8.3,30.54-14.15,58.38L109.5,81.9,123.77,21Z"/></g></g></svg>